<?xml version="1.0" encoding="utf-8"?>
<!-- Generator: Adobe Illustrator 25.0.1, SVG Export Plug-In . SVG Version: 6.00 Build 0)  -->
<svg version="1.1" id="Layer_1" xmlns="http://www.w3.org/2000/svg" xmlns:xlink="http://www.w3.org/1999/xlink" x="0px" y="0px"
	 viewBox="0 0 409.2 407.7" style="enable-background:new 0 0 409.2 407.7;" xml:space="preserve">
<g>
	<path d="M0,9.9C3.5,2.5,9.5,0,17.5,0c47.1,0.2,94.2,0.1,141.3,0.1c6.1,0,11.3,1.7,14.6,7.2c1.9,3.1,2.1,6.6,2.1,10
		c0,47.2,0.1,94.5,0,141.7c0,12-5.6,17.2-17.6,17.2c-46.8,0-93.7-0.1-140.5,0.1c-8,0-14-2.5-17.5-9.9C0,114.2,0,62,0,9.9z M28,87.7
		c0,18.4,0.1,36.7-0.1,55.1c0,3.8,1,5.1,4.9,5.1c36.3-0.1,72.7-0.1,109,0c4.1,0,5.2-1.3,5.2-5.3c-0.1-36.3-0.1-72.7,0-109
		c0-4-1.1-5.3-5.2-5.3c-36.3,0.1-72.7,0.1-109,0c-3.9,0-5,1.3-4.9,5.1C28.1,51.5,28,69.6,28,87.7z"/>
	<path d="M0,227.8c3.2-7.7,8.9-10.7,17.3-10.7c47.1,0.2,94.1,0.1,141.2,0.1c11.9,0,17.3,5.4,17.3,17.3c0,47.2,0,94.4,0,141.6
		c0,11.6-5.6,17.1-17.1,17.2c-47.2,0-94.4,0-141.6,0c-9.5,0-13.4-2.6-17.1-11.3C0,330.6,0,279.2,0,227.8z M28.1,305.3
		c0,18.1,0,36.2,0,54.3c0,5.3,0,5.3,5.2,5.3c36.3,0,72.6-0.1,109,0.1c3.9,0,5.3-0.9,5.3-5.1c-0.2-36.5-0.1-72.9,0-109.4
		c0-3.7-0.9-5.1-4.9-5.1c-36.6,0.1-73.2,0.1-109.8,0c-4,0-4.9,1.4-4.8,5.1C28.2,268.8,28.1,287.1,28.1,305.3z"/>
	<path d="M217,87.9c0-23.7,0-47.4,0-71c0-11.2,5.6-16.8,16.6-16.8c47.5,0,95,0,142.5,0C387.4,0.1,393,5.7,393,17
		c0,47.4,0,94.7,0,142.1c0,11.3-5.6,17-16.9,17c-47.5,0-95,0-142.5,0c-11.1,0-16.6-5.6-16.6-16.7C216.9,135.6,217,111.7,217,87.9z
		 M364.7,88.1c0-18.1,0-36.2,0-54.3c0-5.4,0-5.4-5.2-5.4c-36.3,0-72.6,0.1-109-0.1c-3.9,0-5.3,0.9-5.3,5.1
		c0.2,36.5,0.1,72.9,0,109.4c0,3.7,0.9,5.1,4.9,5.1c36.6-0.1,73.2-0.1,109.8,0c4,0,4.9-1.4,4.8-5.1
		C364.6,124.6,364.7,106.3,364.7,88.1z"/>
	<path d="M267,336.4c0,6.7-0.1,13.3,0,20c0.1,2.9-1.1,4.1-3.9,4c-13.4-0.1-26.9-0.1-40.3,0c-2.9,0-4.1-1.2-4.1-4.1
		c0.1-13.4,0.1-26.9,0-40.3c0-3.2,1.5-4,4.4-4c12.6,0.1,25.3,0.1,37.9,0c5.1,0,5.4-0.3,5.4-5.5c0-12,0-24,0-35.9
		c0-5.2,0-5.2-5.4-5.2c-12.5,0-25-0.1-37.5,0.1c-3.7,0.1-4.9-1.2-4.9-4.8c0.1-12.9,0.1-25.8,0-38.7c0-3.5,1-5,4.8-4.9
		c12.9,0.2,25.8,0.2,38.7,0c4-0.1,4.9,1.4,4.9,5.1c-0.2,12.6,0,25.3-0.1,37.9c0,3.4,1.1,4.4,4.4,4.3c12.6-0.1,25.3-0.2,37.9,0
		c3.7,0.1,4.5-1.4,4.4-4.7c-0.2-12.4-0.1-24.7-0.1-37.1c0-5.4,0-5.4,5.2-5.4c12.8,0,25.5,0.1,38.3-0.1c3.7-0.1,4.9,1.2,4.8,4.8
		c-0.2,12.6,0,25.3-0.1,37.9c0,3.5,1,4.6,4.6,4.6c12.6-0.2,25.3,0,37.9-0.1c3.5,0,4.9,1,4.9,4.8c-0.2,13-0.2,26.1,0,39.1
		c0,3.6-1.2,4.6-4.6,4.5c-13-0.2-26.1-0.2-39.1,0c-3.5,0-4.7-1.1-4.7-4.6c0.1-12.6-0.1-25.3,0.1-37.9c0-3.6-1.1-4.9-4.8-4.8
		c-12.4,0.2-24.7,0.2-37.1,0c-3.3,0-4.4,1.1-4.4,4.4c0.1,12.6-0.1,25.3,0.1,37.9c0.1,3.8-1.2,5.1-5.1,5c-12.6-0.2-25.3,0.1-37.9-0.2
		c-4-0.1-5,1.3-4.9,5C267.2,323.9,267,330.2,267,336.4z"/>
	<path d="M337.8,407.7c-6.7,0-13.3-0.1-20,0c-3,0.1-4.3-0.9-4.3-4.1c0.1-13.4,0.1-26.9,0-40.3c0-2.9,1.1-4,4-4
		c13.4,0.1,26.9,0.1,40.3,0c3.2,0,4.1,1.3,4.1,4.3c-0.1,13.3-0.1,26.6,0,39.9c0,3.1-1.1,4.3-4.2,4.2
		C351.1,407.6,344.4,407.7,337.8,407.7z"/>
	<path d="M87.6,112.3c-6.6,0-13.3-0.1-19.9,0c-3.1,0.1-4.2-1-4.2-4.2c0.1-13.4,0.1-26.9,0-40.3c0-2.9,1.1-4,4-4
		c13.4,0.1,26.9,0.1,40.3,0c2.9,0,4.1,1.1,4.1,4c-0.1,13.6-0.1,27.1,0,40.7c0,2.7-1.1,3.8-3.8,3.8
		C101.2,112.2,94.4,112.3,87.6,112.3z"/>
	<path d="M87.7,329.4c-6.7,0-13.3-0.1-20,0c-3.1,0.1-4.2-1.2-4.2-4.2c0.1-13.3,0.1-26.6,0-39.9c0-3,0.9-4.3,4.1-4.3
		c13.4,0.1,26.9,0.1,40.3,0c2.9,0,4,1.1,4,4c-0.1,13.4-0.1,26.9,0,40.3c0,3.2-1.4,4.1-4.3,4.1C101,329.3,94.4,329.4,87.7,329.4z"/>
	<path d="M329.1,88.2c0,6.7-0.1,13.3,0,20c0.1,3.1-1.2,4.2-4.3,4.2c-13.3-0.1-26.6-0.1-39.9,0c-3,0-4.3-1-4.2-4.1
		c0.1-13.4,0.1-26.9,0-40.3c0-3,1.2-4,4-3.9c13.4,0.1,26.9,0.1,40.3,0c3.2,0,4.1,1.4,4.1,4.3C329.1,74.9,329.1,81.5,329.1,88.2z"/>
</g>
</svg>
